<?xml version="1.0" encoding="utf-8"?>
<svg xmlns="http://www.w3.org/2000/svg" viewBox="189.5649 117 521.8703 409" width="521.87px" height="409px">
  <defs>
    <style type="text/css">
	.st0{fill:#FFFFFF;}
	.st1{fill-rule:evenodd;clip-rule:evenodd;}
</style>
  </defs>
  <path d="M274.4,429.2c3.2-3.2,7.5-5,12-5h416.5c7.6,0,11.4,9.2,6,14.5L626.6,521c-3.2,3.2-7.5,5-12,5H198.1c-7.6,0-11.4-9.2-6-14.5 L274.4,429.2z"/>
  <path d="M274.4,122c3.2-3.2,7.5-5,12-5h416.5c7.6,0,11.4,9.2,6,14.5l-82.3,82.2c-3.2,3.2-7.5,5-12,5H198.1c-7.6,0-11.4-9.2-6-14.5 L274.4,122z"/>
  <path d="M626.6,274.6c-3.2-3.2-7.5-5-12-5H198.1c-7.6,0-11.4,9.2-6,14.5l82.3,82.2c3.2,3.2,7.5,5,12,5h416.5c7.6,0,11.4-9.2,6-14.5 L626.6,274.6z"/>
</svg>